{
  "accessors": [
    {
      "bufferView": 2,
      "componentType": 5126,
      "count": 50,
      "max": [
        84.3609848022461,
        7.6290411949157715,
        92.78038024902344
      ],
      "min": [
        -84.36083984375,
        -12.37098503112793,
        -79.99978637695313
      ],
      "type": "VEC3"
    },
    {
      "bufferView": 2,
      "byteOffset": 600,
      "componentType": 5126,
      "count": 50,
      "max": [
        1.0,
        0.0,
        1.0
      ],
      "min": [
        -1.0,
        -1.0,
        -1.0
      ],
      "type": "VEC3"
    },
    {
      "bufferView": 3,
      "componentType": 5126,
      "count": 50,
      "max": [
        0.0,
        0.0,
        0.0,
        0.0
      ],
      "min": [
        0.0,
        0.0,
        0.0,
        0.0
      ],
      "type": "VEC4"
    },
    {
      "bufferView": 1,
      "componentType": 5126,
      "count": 50,
      "max": [
        1.0,
        1.0
      ],
      "min": [
        0.0,
        0.0
      ],
      "type": "VEC2"
    },
    {
      "bufferView": 0,
      "componentType": 5125,
      "count": 120,
      "type": "SCALAR"
    },
    {
      "bufferView": 2,
      "byteOffset": 1200,
      "componentType": 5126,
      "count": 147,
      "max": [
        68.43118286132813,
        -9.345420837402344,
        -37.626644134521484
      ],
      "min": [
        40.431793212890625,
        -12.26742172241211,
        -65.2006607055664
      ],
      "type": "VEC3"
    },
    {
      "bufferView": 2,
      "byteOffset": 2964,
      "componentType": 5126,
      "count": 147,
      "max": [
        0.5672865509986877,
        -0.8172541856765747,
        0.5701063275337219
      ],
      "min": [
        -0.5672863721847534,
        -1.0,
        -0.5762774348258972
      ],
      "type": "VEC3"
    },
    {
      "bufferView": 1,
      "byteOffset": 400,
      "componentType": 5126,
      "count": 147,
      "max": [
        0.9722222089767456,
        1.0
      ],
      "min": [
        0.028478369116783142,
        1.0
      ],
      "type": "VEC2"
    },
    {
      "bufferView": 0,
      "byteOffset": 480,
      "componentType": 5125,
      "count": 768,
      "type": "SCALAR"
    },
    {
      "bufferView": 2,
      "byteOffset": 4728,
      "componentType": 5126,
      "count": 715,
      "max": [
        105.62884521484375,
        0.9199581146240234,
        -0.9743881225585938
      ],
      "min": [
        3.8589134216308594,
        -9.34542465209961,
        -102.45067596435547
      ],
      "type": "VEC3"
    },
    {
      "bufferView": 2,
      "byteOffset": 13308,
      "componentType": 5126,
      "count": 715,
      "max": [
        1.0,
        0.9999104738235474,
        1.0
      ],
      "min": [
        -1.0,
        -0.9999111294746399,
        -1.0
      ],
      "type": "VEC3"
    },
    {
      "bufferView": 1,
      "byteOffset": 1576,
      "componentType": 5126,
      "count": 715,
      "max": [
        0.9722222089767456,
        1.0
      ],
      "min": [
        -0.027777791023254395,
        0.4336859881877899
      ],
      "type": "VEC2"
    },
    {
      "bufferView": 0,
      "byteOffset": 3552,
      "componentType": 5125,
      "count": 2376,
      "type": "SCALAR"
    },
    {
      "bufferView": 2,
      "byteOffset": 21888,
      "componentType": 5126,
      "count": 245,
      "max": [
        82.7007827758789,
        0.9199542999267578,
        -23.543888092041016
      ],
      "min": [
        26.162193298339844,
        -1.7007694244384766,
        -79.28343200683594
      ],
      "type": "VEC3"
    },
    {
      "bufferView": 2,
      "byteOffset": 24828,
      "componentType": 5126,
      "count": 245,
      "max": [
        0.9859231114387512,
        1.0,
        1.0
      ],
      "min": [
        -0.9859232306480408,
        -1.0,
        -0.9999814033508301
      ],
      "type": "VEC3"
    },
    {
      "bufferView": 1,
      "byteOffset": 7296,
      "componentType": 5126,
      "count": 245,
      "max": [
        0.9722221493721008,
        0.4336860179901123
      ],
      "min": [
        -0.027777791023254395,
        0.4336859881877899
      ],
      "type": "VEC2"
    },
    {
      "bufferView": 0,
      "byteOffset": 13056,
      "componentType": 5125,
      "count": 612,
      "type": "SCALAR"
    },
    {
      "bufferView": 2,
      "byteOffset": 27768,
      "componentType": 5126,
      "count": 356,
      "max": [
        158.60946655273438,
        -0.9500316381454468,
        -1.0159683227539063
      ],
      "min": [
        10.253517150878906,
        -16.783336639404297,
        -163.05104064941406
      ],
      "type": "VEC3"
    },
    {
      "bufferView": 2,
      "byteOffset": 32040,
      "componentType": 5126,
      "count": 356,
      "max": [
        1.0,
        1.0,
        1.0
      ],
      "min": [
        -1.0,
        -1.0,
        -1.0
      ],
      "type": "VEC3"
    },
    {
      "bufferView": 1,
      "byteOffset": 9256,
      "componentType": 5126,
      "count": 356,
      "max": [
        0.9722222089767456,
        1.0
      ],
      "min": [
        -0.125,
        0.0
      ],
      "type": "VEC2"
    },
    {
      "bufferView": 0,
      "byteOffset": 15504,
      "componentType": 5125,
      "count": 1104,
      "type": "SCALAR"
    },
    {
      "bufferView": 2,
      "byteOffset": 36312,
      "componentType": 5126,
      "count": 1482,
      "max": [
        168.33091735839844,
        0.18825304508209229,
        -0.33429718017578125
      ],
      "min": [
        0.5320587158203125,
        -17.465009689331055,
        -166.15098571777344
      ],
      "type": "VEC3"
    },
    {
      "bufferView": 2,
      "byteOffset": 54096,
      "componentType": 5126,
      "count": 1482,
      "max": [
        1.0,
        1.0,
        1.0
      ],
      "min": [
        -1.0,
        -1.0,
        -1.0
      ],
      "type": "VEC3"
    },
    {
      "bufferView": 1,
      "byteOffset": 12104,
      "componentType": 5126,
      "count": 1482,
      "max": [
        1.0,
        1.0
      ],
      "min": [
        -0.125,
        0.0
      ],
      "type": "VEC2"
    },
    {
      "bufferView": 0,
      "byteOffset": 19920,
      "componentType": 5125,
      "count": 3648,
      "type": "SCALAR"
    },
    {
      "bufferView": 2,
      "byteOffset": 71880,
      "componentType": 5126,
      "count": 208,
      "max": [
        168.33091735839844,
        -5.908268451690674,
        -13.849014282226563
      ],
      "min": [
        0.5320587158203125,
        -10.848294258117676,
        -166.15098571777344
      ],
      "type": "VEC3"
    },
    {
      "bufferView": 2,
      "byteOffset": 74376,
      "componentType": 5126,
      "count": 208,
      "max": [
        0.9807935953140259,
        0.12928040325641632,
        0.999763011932373
      ],
      "min": [
        -0.9807936549186707,
        -0.18035858869552612,
        -0.999763011932373
      ],
      "type": "VEC3"
    },
    {
      "bufferView": 1,
      "byteOffset": 23960,
      "componentType": 5126,
      "count": 208,
      "max": [
        0.9166666865348816,
        1.0
      ],
      "min": [
        0.8055554628372192,
        0.0
      ],
      "type": "VEC2"
    },
    {
      "bufferView": 0,
      "byteOffset": 34512,
      "componentType": 5125,
      "count": 528,
      "type": "SCALAR"
    },
    {
      "bufferView": 2,
      "byteOffset": 76872,
      "componentType": 5126,
      "count": 60,
      "max": [
        150.06781005859375,
        -13.350854873657227,
        -30.263351440429688
      ],
      "min": [
        18.795166015625,
        -13.350874900817871,
        -149.73666381835938
      ],
      "type": "VEC3"
    },
    {
      "bufferView": 2,
      "byteOffset": 77592,
      "componentType": 5126,
      "count": 60,
      "max": [
        0.28246167302131653,
        -0.9453150033950806,
        0.306488037109375
      ],
      "min": [
        -0.2824617922306061,
        -1.0,
        -0.3064887225627899
      ],
      "type": "VEC3"
    },
    {
      "bufferView": 1,
      "byteOffset": 25624,
      "componentType": 5126,
      "count": 60,
      "max": [
        0.9166666865348816,
        1.0
      ],
      "min": [
        0.805555522441864,
        1.0
      ],
      "type": "VEC2"
    },
    {
      "bufferView": 0,
      "byteOffset": 36624,
      "componentType": 5125,
      "count": 192,
      "type": "SCALAR"
    },
    {
      "bufferView": 2,
      "byteOffset": 78312,
      "componentType": 5126,
      "count": 27,
      "max": [
        128.22976684570313,
        -6.368374824523926,
        -1.0159683227539063
      ],
      "min": [
        40.63322448730469,
        -16.783336639404297,
        -11.430931091308594
      ],
      "type": "VEC3"
    },
    {
      "bufferView": 2,
      "byteOffset": 78636,
      "componentType": 5126,
      "count": 27,
      "max": [
        0.0,
        1.0,
        1.0
      ],
      "min": [
        -3.067527742928178e-08,
        -1.0,
        -1.0
      ],
      "type": "VEC3"
    },
    {
      "bufferView": 1,
      "byteOffset": 26104,
      "componentType": 5126,
      "count": 27,
      "max": [
        0.875,
        0.995326817035675
      ],
      "min": [
        -0.125,
        0.5
      ],
      "type": "VEC2"
    },
    {
      "bufferView": 0,
      "byteOffset": 37392,
      "componentType": 5125,
      "count": 96,
      "type": "SCALAR"
    },
    {
      "bufferView": 2,
      "byteOffset": 78960,
      "componentType": 5126,
      "count": 36,
      "max": [
        128.43161010742188,
        -5.686701774597168,
        -0.33429718017578125
      ],
      "min": [
        40.43138122558594,
        -17.465009689331055,
        -12.11260986328125
      ],
      "type": "VEC3"
    },
    {
      "bufferView": 2,
      "byteOffset": 79392,
      "componentType": 5126,
      "count": 36,
      "max": [
        0.9999688267707825,
        0.007923807017505169,
        0.007923802360892296
      ],
      "min": [
        -0.9999687075614929,
        -0.00792380329221487,
        -0.00792377907782793
      ],
      "type": "VEC3"
    },
    {
      "bufferView": 1,
      "byteOffset": 26320,
      "componentType": 5126,
      "count": 36,
      "max": [
        0.875,
        1.0
      ],
      "min": [
        -0.125,
        0.9975484609603882
      ],
      "type": "VEC2"
    },
    {
      "bufferView": 0,
      "byteOffset": 37776,
      "componentType": 5125,
      "count": 96,
      "type": "SCALAR"
    },
    {
      "bufferView": 4,
      "componentType": 5126,
      "count": 23,
      "max": [
        0.7333333492279053
      ],
      "min": [
        0.0
      ],
      "type": "SCALAR"
    },
    {
      "bufferView": 5,
      "componentType": 5126,
      "count": 23,
      "max": [
        0.4999999701976776,
        0.7071067690849304,
        0.6532815098762512,
        0.7071067690849304
      ],
      "min": [
        -0.7071067690849304,
        -0.6532815098762512,
        -0.7071067690849304,
        -0.4999999701976776
      ],
      "type": "VEC4"
    }
  ],
  "animations": [
    {
      "channels": [
        {
          "sampler": 0,
          "target": {
            "node": 6,
            "path": "rotation"
          }
        }
      ],
      "name": "Take 001",
      "samplers": [
        {
          "input": 41,
          "interpolation": "LINEAR",
          "output": 42
        }
      ]
    }
  ],
  "asset": {
    "extras": {
      "author": "Eliott (https://sketchfab.com/eliotthames)",
      "license": "CC-BY-4.0 (http://creativecommons.org/licenses/by/4.0/)",
      "source": "https://sketchfab.com/3d-models/ac-fan-276110e96e6b463cae0b1705fe1dc3e2",
      "title": "AC Fan"
    },
    "generator": "Sketchfab-12.66.0",
    "version": "2.0"
  },
  "bufferViews": [
    {
      "buffer": 0,
      "byteLength": 38160,
      "name": "floatBufferViews",
      "target": 34963
    },
    {
      "buffer": 0,
      "byteLength": 26608,
      "byteOffset": 38160,
      "byteStride": 8,
      "name": "floatBufferViews",
      "target": 34962
    },
    {
      "buffer": 0,
      "byteLength": 79824,
      "byteOffset": 64768,
      "byteStride": 12,
      "name": "floatBufferViews",
      "target": 34962
    },
    {
      "buffer": 0,
      "byteLength": 800,
      "byteOffset": 144592,
      "byteStride": 16,
      "name": "floatBufferViews",
      "target": 34962
    },
    {
      "buffer": 0,
      "byteLength": 92,
      "byteOffset": 145392,
      "name": "floatBufferViews"
    },
    {
      "buffer": 0,
      "byteLength": 368,
      "byteOffset": 145484,
      "byteStride": 16,
      "name": "floatBufferViews"
    }
  ],
  "buffers": [
    {
      "byteLength": 145852,
      "uri": "scene.bin"
    }
  ],
  "extensionsUsed": [
    "KHR_materials_transmission"
  ],
  "materials": [
    {
      "doubleSided": true,
      "name": "Fan_Centre",
      "pbrMetallicRoughness": {
        "baseColorFactor": [
          0.180392,
          0.192157,
          0.207843,
          1.0
        ],
        "metallicFactor": 0.0,
        "roughnessFactor": 0.8929713596497552
      }
    },
    {
      "doubleSided": true,
      "name": "Base_1",
      "pbrMetallicRoughness": {
        "baseColorFactor": [
          0.113725,
          0.12549,
          0.141176,
          1.0
        ],
        "metallicFactor": 0.0,
        "roughnessFactor": 0.8929713596497552
      }
    },
    {
      "doubleSided": true,
      "name": "Fan_Border",
      "pbrMetallicRoughness": {
        "baseColorFactor": [
          0.7254900000000001,
          0.09803919999999999,
          0.03137259999999999,
          1.0
        ],
        "metallicFactor": 0.0,
        "roughnessFactor": 0.8929713596497552
      }
    },
    {
      "doubleSided": true,
      "name": "Base_2",
      "pbrMetallicRoughness": {
        "baseColorFactor": [
          0.0862745,
          0.0784314,
          0.0784314,
          1.0
        ],
        "metallicFactor": 0.0,
        "roughnessFactor": 0.8929713596497552
      }
    },
    {
      "alphaMode": "BLEND",
      "doubleSided": true,
      "emissiveFactor": [
        0.4465418453636824,
        0.13454580051389173,
        0.005599446914226762
      ],
      "extensions": {
        "KHR_materials_transmission": {
          "transmissionFactor": 0.2504286522080149
        }
      },
      "name": "Panel_Lights",
      "pbrMetallicRoughness": {
        "baseColorFactor": [
          0.5803919999999999,
          0.44705899999999976,
          0.15294099999999997,
          0.7495713477919851
        ],
        "metallicFactor": 0.0,
        "roughnessFactor": 0.8929713596497552
      }
    },
    {
      "alphaMode": "BLEND",
      "doubleSided": true,
      "emissiveFactor": [
        0.26030741355513803,
        0.26030741355513803,
        0.26030741355513803
      ],
      "name": "Overhead_Light",
      "pbrMetallicRoughness": {
        "baseColorFactor": [
          0.588235,
          0.694118,
          0.768627,
          0.46988338227872734
        ],
        "metallicFactor": 0.0,
        "roughnessFactor": 0.0
      }
    }
  ],
  "meshes": [
    {
      "name": "Plane001_Fan Centre_0",
      "primitives": [
        {
          "attributes": {
            "COLOR_0": 2,
            "NORMAL": 1,
            "POSITION": 0,
            "TEXCOORD_0": 3
          },
          "indices": 4,
          "material": 0,
          "mode": 4
        }
      ]
    },
    {
      "name": "Fann_Fan Centre_0",
      "primitives": [
        {
          "attributes": {
            "NORMAL": 6,
            "POSITION": 5,
            "TEXCOORD_0": 7
          },
          "indices": 8,
          "material": 0,
          "mode": 4
        }
      ]
    },
    {
      "name": "Fann_Base 1_0",
      "primitives": [
        {
          "attributes": {
            "NORMAL": 10,
            "POSITION": 9,
            "TEXCOORD_0": 11
          },
          "indices": 12,
          "material": 1,
          "mode": 4
        }
      ]
    },
    {
      "name": "Fann_Fan Border_0",
      "primitives": [
        {
          "attributes": {
            "NORMAL": 14,
            "POSITION": 13,
            "TEXCOORD_0": 15
          },
          "indices": 16,
          "material": 2,
          "mode": 4
        }
      ]
    },
    {
      "name": "Fan_Exterior_Base 1_0",
      "primitives": [
        {
          "attributes": {
            "NORMAL": 18,
            "POSITION": 17,
            "TEXCOORD_0": 19
          },
          "indices": 20,
          "material": 1,
          "mode": 4
        }
      ]
    },
    {
      "name": "Fan_Exterior_Base 2_0",
      "primitives": [
        {
          "attributes": {
            "NORMAL": 22,
            "POSITION": 21,
            "TEXCOORD_0": 23
          },
          "indices": 24,
          "material": 3,
          "mode": 4
        }
      ]
    },
    {
      "name": "Fan_Exterior_Fan Border_0",
      "primitives": [
        {
          "attributes": {
            "NORMAL": 26,
            "POSITION": 25,
            "TEXCOORD_0": 27
          },
          "indices": 28,
          "material": 2,
          "mode": 4
        }
      ]
    },
    {
      "name": "Fan_Exterior_Panel Lights_0",
      "primitives": [
        {
          "attributes": {
            "NORMAL": 30,
            "POSITION": 29,
            "TEXCOORD_0": 31
          },
          "indices": 32,
          "material": 4,
          "mode": 4
        }
      ]
    },
    {
      "name": "Fan_Exterior_Overhead Light_0",
      "primitives": [
        {
          "attributes": {
            "NORMAL": 34,
            "POSITION": 33,
            "TEXCOORD_0": 35
          },
          "indices": 36,
          "material": 5,
          "mode": 4
        }
      ]
    },
    {
      "name": "Fan_Exterior_Fan Centre_0",
      "primitives": [
        {
          "attributes": {
            "NORMAL": 38,
            "POSITION": 37,
            "TEXCOORD_0": 39
          },
          "indices": 40,
          "material": 0,
          "mode": 4
        }
      ]
    }
  ],
  "nodes": [
    {
      "children": [
        1
      ],
      "matrix": [
        1.0,
        0.0,
        0.0,
        0.0,
        0.0,
        2.220446049250313e-16,
        -1.0,
        0.0,
        0.0,
        1.0,
        2.220446049250313e-16,
        0.0,
        0.0,
        0.0,
        0.0,
        1.0
      ],
      "name": "Sketchfab_model"
    },
    {
      "children": [
        2
      ],
      "matrix": [
        1.0,
        0.0,
        0.0,
        0.0,
        0.0,
        0.0,
        1.0,
        0.0,
        0.0,
        -1.0,
        0.0,
        0.0,
        0.0,
        0.0,
        0.0,
        1.0
      ],
      "name": "adf26c370ee14bd292aab60d2a2c9d93.fbx"
    },
    {
      "children": [
        3
      ],
      "name": "Object_2"
    },
    {
      "children": [
        4,
        6,
        11
      ],
      "name": "RootNode"
    },
    {
      "children": [
        5
      ],
      "name": "Plane001",
      "rotation": [
        -0.7071068286895752,
        -0.0,
        0.0,
        0.7071068286895752
      ],
      "translation": [
        0.0,
        30.0,
        0.0
      ]
    },
    {
      "mesh": 0,
      "name": "Plane001_Fan Centre_0"
    },
    {
      "children": [
        7
      ],
      "name": "Fann",
      "rotation": [
        -0.6830127239227295,
        0.18301276862621307,
        -0.18301276862621307,
        0.6830127239227295
      ],
      "translation": [
        0.0,
        27.659656524658203,
        4.9564361572265625
      ]
    },
    {
      "children": [
        8,
        9,
        10
      ],
      "matrix": [
        1.0,
        0.0,
        -0.0,
        0.0,
        0.0,
        1.0,
        0.0,
        0.0,
        0.0,
        0.0,
        1.0,
        0.0,
        -54.74388122558594,
        5.673731803894043,
        51.71253204345703,
        1.0
      ],
      "name": "Object_7"
    },
    {
      "mesh": 1,
      "name": "Fann_Fan Centre_0"
    },
    {
      "mesh": 2,
      "name": "Fann_Base 1_0"
    },
    {
      "mesh": 3,
      "name": "Fann_Fan Border_0"
    },
    {
      "children": [
        12
      ],
      "name": "Fan_Exterior",
      "rotation": [
        -0.7071068286895752,
        -0.0,
        0.0,
        0.7071068286895752
      ],
      "translation": [
        0.0,
        36.31156921386719,
        18.706710815429688
      ]
    },
    {
      "children": [
        13,
        14,
        15,
        16,
        17,
        18
      ],
      "matrix": [
        1.0,
        0.0,
        -0.0,
        0.0,
        0.0,
        1.0,
        0.0,
        0.0,
        0.0,
        0.0,
        1.0,
        0.0,
        -84.43148803710938,
        8.638378143310547,
        83.24264526367188,
        1.0
      ],
      "name": "Object_12"
    },
    {
      "mesh": 4,
      "name": "Fan_Exterior_Base 1_0"
    },
    {
      "mesh": 5,
      "name": "Fan_Exterior_Base 2_0"
    },
    {
      "mesh": 6,
      "name": "Fan_Exterior_Fan Border_0"
    },
    {
      "mesh": 7,
      "name": "Fan_Exterior_Panel Lights_0"
    },
    {
      "mesh": 8,
      "name": "Fan_Exterior_Overhead Light_0"
    },
    {
      "mesh": 9,
      "name": "Fan_Exterior_Fan Centre_0"
    }
  ],
  "scene": 0,
  "scenes": [
    {
      "name": "Sketchfab_Scene",
      "nodes": [
        0
      ]
    }
  ]
}
