{
  "accessors": [
    {
      "bufferView": 2,
      "componentType": 5126,
      "count": 7414,
      "max": [
        0.793192982673645,
        0.24395300447940826,
        1.079563021659851
      ],
      "min": [
        -0.7449079751968384,
        -0.26657798886299133,
        0.0
      ],
      "type": "VEC3"
    },
    {
      "bufferView": 2,
      "byteOffset": 88968,
      "componentType": 5126,
      "count": 7414,
      "max": [
        1.0,
        1.0,
        1.0
      ],
      "min": [
        -1.0,
        -1.0,
        -1.0
      ],
      "type": "VEC3"
    },
    {
      "bufferView": 3,
      "componentType": 5126,
      "count": 7414,
      "max": [
        1.0,
        1.0,
        1.0,
        1.0
      ],
      "min": [
        -1.0,
        -1.0,
        -1.0,
        -1.0
      ],
      "type": "VEC4"
    },
    {
      "bufferView": 1,
      "componentType": 5126,
      "count": 7414,
      "max": [
        0.9905139803886414,
        0.9952890276908875
      ],
      "min": [
        0.0047109997831285,
        0.0047109997831285
      ],
      "type": "VEC2"
    },
    {
      "bufferView": 1,
      "byteOffset": 59312,
      "componentType": 5126,
      "count": 7414,
      "max": [
        0.9989989995956421,
        0.9989989995956421
      ],
      "min": [
        0.0010010000551119447,
        0.0010010000551119447
      ],
      "type": "VEC2"
    },
    {
      "bufferView": 0,
      "componentType": 5125,
      "count": 11526,
      "type": "SCALAR"
    },
    {
      "bufferView": 2,
      "byteOffset": 177936,
      "componentType": 5126,
      "count": 217,
      "max": [
        0.744907021522522,
        0.24395300447940826,
        -1.079563021659851
      ],
      "min": [
        -0.7449079751968384,
        -0.24395300447940826,
        -1.1170059442520142
      ],
      "type": "VEC3"
    },
    {
      "bufferView": 2,
      "byteOffset": 180540,
      "componentType": 5126,
      "count": 217,
      "max": [
        1.0,
        1.0,
        0.9996408820152283
      ],
      "min": [
        -1.0,
        -1.0,
        -1.0
      ],
      "type": "VEC3"
    },
    {
      "bufferView": 3,
      "byteOffset": 118624,
      "componentType": 5126,
      "count": 217,
      "max": [
        0.5188937783241272,
        1.0,
        1.0,
        1.0
      ],
      "min": [
        -0.5209823846817017,
        -1.0,
        -0.9999998211860657,
        1.0
      ],
      "type": "VEC4"
    },
    {
      "bufferView": 1,
      "byteOffset": 118624,
      "componentType": 5126,
      "count": 217,
      "max": [
        0.9447020292282104,
        0.9617879986763
      ],
      "min": [
        0.11465799808502197,
        0.0047109997831285
      ],
      "type": "VEC2"
    },
    {
      "bufferView": 0,
      "byteOffset": 46104,
      "componentType": 5125,
      "count": 756,
      "type": "SCALAR"
    },
    {
      "bufferView": 2,
      "byteOffset": 183144,
      "componentType": 5126,
      "count": 414,
      "max": [
        0.11587099730968475,
        0.23144300282001495,
        0.11587099730968475
      ],
      "min": [
        -0.11587099730968475,
        -0.02855299971997738,
        -0.11587099730968475
      ],
      "type": "VEC3"
    },
    {
      "bufferView": 2,
      "byteOffset": 188112,
      "componentType": 5126,
      "count": 414,
      "max": [
        1.0,
        1.0,
        1.0
      ],
      "min": [
        -1.0,
        -1.0,
        -1.0
      ],
      "type": "VEC3"
    },
    {
      "bufferView": 3,
      "byteOffset": 122096,
      "componentType": 5126,
      "count": 414,
      "max": [
        0.9985706210136414,
        0.7036939263343811,
        0.9959030151367188,
        1.0
      ],
      "min": [
        -0.9959145188331604,
        -0.7036936283111572,
        -0.9985719919204712,
        1.0
      ],
      "type": "VEC4"
    },
    {
      "bufferView": 1,
      "byteOffset": 120360,
      "componentType": 5126,
      "count": 414,
      "max": [
        0.9143980145454407,
        0.9463030099868774
      ],
      "min": [
        0.14450900256633759,
        0.6117759943008423
      ],
      "type": "VEC2"
    },
    {
      "bufferView": 0,
      "byteOffset": 49128,
      "componentType": 5125,
      "count": 1140,
      "type": "SCALAR"
    },
    {
      "bufferView": 2,
      "byteOffset": 193080,
      "componentType": 5126,
      "count": 72,
      "max": [
        0.027389999479055405,
        -0.0,
        0.027389999479055405
      ],
      "min": [
        -0.027389999479055405,
        -0.44366198778152466,
        -0.027389999479055405
      ],
      "type": "VEC3"
    },
    {
      "bufferView": 2,
      "byteOffset": 193944,
      "componentType": 5126,
      "count": 72,
      "max": [
        1.0,
        1.0,
        1.0
      ],
      "min": [
        -1.0,
        -1.0,
        -1.0
      ],
      "type": "VEC3"
    },
    {
      "bufferView": 3,
      "byteOffset": 128720,
      "componentType": 5126,
      "count": 72,
      "max": [
        1.0,
        0.0,
        1.0,
        1.0
      ],
      "min": [
        -1.0,
        0.0,
        -1.0,
        1.0
      ],
      "type": "VEC4"
    },
    {
      "bufferView": 1,
      "byteOffset": 123672,
      "componentType": 5126,
      "count": 72,
      "max": [
        0.9835240244865417,
        0.9759529829025269
      ],
      "min": [
        0.35893601179122925,
        0.0047109997831285
      ],
      "type": "VEC2"
    },
    {
      "bufferView": 0,
      "byteOffset": 53688,
      "componentType": 5125,
      "count": 180,
      "type": "SCALAR"
    },
    {
      "bufferView": 2,
      "byteOffset": 194808,
      "componentType": 5126,
      "count": 9711,
      "max": [
        0.3896700143814087,
        0.12137400358915329,
        0.3896700143814087
      ],
      "min": [
        -0.3896700143814087,
        -0.1162090003490448,
        -0.3896700143814087
      ],
      "type": "VEC3"
    },
    {
      "bufferView": 2,
      "byteOffset": 311340,
      "componentType": 5126,
      "count": 9711,
      "max": [
        0.9999997615814209,
        0.9336603879928589,
        0.9999996423721313
      ],
      "min": [
        -0.9999997615814209,
        -0.9873837828636169,
        -0.9999996423721313
      ],
      "type": "VEC3"
    },
    {
      "bufferView": 3,
      "byteOffset": 129872,
      "componentType": 5126,
      "count": 9711,
      "max": [
        0.9995124936103821,
        0.9932387471199036,
        0.9960643649101257,
        1.0
      ],
      "min": [
        -0.9998474717140198,
        -0.9995531439781189,
        -0.997886598110199,
        1.0
      ],
      "type": "VEC4"
    },
    {
      "bufferView": 1,
      "byteOffset": 124248,
      "componentType": 5126,
      "count": 9711,
      "max": [
        0.9932640194892883,
        0.9924769997596741
      ],
      "min": [
        0.0403750017285347,
        0.0897509977221489
      ],
      "type": "VEC2"
    },
    {
      "bufferView": 0,
      "byteOffset": 54408,
      "componentType": 5125,
      "count": 47616,
      "type": "SCALAR"
    },
    {
      "bufferView": 2,
      "byteOffset": 427872,
      "componentType": 5126,
      "count": 602,
      "max": [
        1.009124994277954,
        0.4063659906387329,
        0.00824000034481287
      ],
      "min": [
        -0.01401199959218502,
        -0.6124500036239624,
        0.0
      ],
      "type": "VEC3"
    },
    {
      "bufferView": 2,
      "byteOffset": 435096,
      "componentType": 5126,
      "count": 602,
      "max": [
        1.0,
        1.0,
        0.9702379703521729
      ],
      "min": [
        -1.0,
        -1.0,
        -1.0
      ],
      "type": "VEC3"
    },
    {
      "bufferView": 3,
      "byteOffset": 285248,
      "componentType": 5126,
      "count": 602,
      "max": [
        0.9735568761825562,
        0.9285396337509155,
        1.0,
        1.0
      ],
      "min": [
        -0.9856284856796265,
        -0.999678909778595,
        -1.0,
        1.0
      ],
      "type": "VEC4"
    },
    {
      "bufferView": 1,
      "byteOffset": 201936,
      "componentType": 5126,
      "count": 602,
      "max": [
        0.9564380049705505,
        0.9635419845581055
      ],
      "min": [
        0.034703999757766724,
        0.0768510028719902
      ],
      "type": "VEC2"
    },
    {
      "bufferView": 0,
      "byteOffset": 244872,
      "componentType": 5125,
      "count": 1824,
      "type": "SCALAR"
    },
    {
      "bufferView": 2,
      "byteOffset": 442320,
      "componentType": 5126,
      "count": 8288,
      "max": [
        0.47022300958633423,
        0.005117000080645084,
        0.47022300958633423
      ],
      "min": [
        -0.47022300958633423,
        -0.005117000080645084,
        -0.47022300958633423
      ],
      "type": "VEC3"
    },
    {
      "bufferView": 2,
      "byteOffset": 541776,
      "componentType": 5126,
      "count": 8288,
      "max": [
        1.0,
        0.96592777967453,
        1.0
      ],
      "min": [
        -1.0,
        -0.9659273624420166,
        -1.0
      ],
      "type": "VEC3"
    },
    {
      "bufferView": 3,
      "byteOffset": 294880,
      "componentType": 5126,
      "count": 8288,
      "max": [
        0.6907133460044861,
        1.0,
        0.865644633769989,
        1.0
      ],
      "min": [
        -0.6908109784126282,
        -0.9999999403953552,
        -0.8656214475631714,
        1.0
      ],
      "type": "VEC4"
    },
    {
      "bufferView": 1,
      "byteOffset": 206752,
      "componentType": 5126,
      "count": 8288,
      "max": [
        0.9839339852333069,
        0.994583010673523
      ],
      "min": [
        0.0047109997831285,
        0.0047109997831285
      ],
      "type": "VEC2"
    },
    {
      "bufferView": 0,
      "byteOffset": 252168,
      "componentType": 5125,
      "count": 27648,
      "type": "SCALAR"
    },
    {
      "bufferView": 2,
      "byteOffset": 641232,
      "componentType": 5126,
      "count": 404,
      "max": [
        0.7197239995002747,
        0.0058200000785291195,
        0.7014960050582886
      ],
      "min": [
        0.00989300012588501,
        -0.057916998863220215,
        0.007699999958276749
      ],
      "type": "VEC3"
    },
    {
      "bufferView": 2,
      "byteOffset": 646080,
      "componentType": 5126,
      "count": 404,
      "max": [
        0.9727006554603577,
        1.0,
        0.97086501121521
      ],
      "min": [
        -0.9727006554603577,
        -0.9993731379508972,
        -0.9708619713783264
      ],
      "type": "VEC3"
    },
    {
      "bufferView": 3,
      "byteOffset": 427488,
      "componentType": 5126,
      "count": 404,
      "max": [
        0.981440007686615,
        0.9994487762451172,
        0.9924129843711853,
        1.0
      ],
      "min": [
        -0.981438159942627,
        -0.601105272769928,
        -0.9924123883247375,
        -1.0
      ],
      "type": "VEC4"
    },
    {
      "bufferView": 1,
      "byteOffset": 273056,
      "componentType": 5126,
      "count": 404,
      "max": [
        0.9910249710083008,
        0.9623630046844482
      ],
      "min": [
        0.3092449903488159,
        0.0897509977221489
      ],
      "type": "VEC2"
    },
    {
      "bufferView": 0,
      "byteOffset": 362760,
      "componentType": 5125,
      "count": 1272,
      "type": "SCALAR"
    },
    {
      "bufferView": 2,
      "byteOffset": 650928,
      "componentType": 5126,
      "count": 288,
      "max": [
        0.7485510110855103,
        0.0016929999692365527,
        0.7301049828529358
      ],
      "min": [
        -0.019294999539852142,
        -0.0016929999692365527,
        -0.019294999539852142
      ],
      "type": "VEC3"
    },
    {
      "bufferView": 2,
      "byteOffset": 654384,
      "componentType": 5126,
      "count": 288,
      "max": [
        1.0,
        1.0,
        1.0
      ],
      "min": [
        -1.0,
        -1.0,
        -1.0
      ],
      "type": "VEC3"
    },
    {
      "bufferView": 3,
      "byteOffset": 433952,
      "componentType": 5126,
      "count": 288,
      "max": [
        0.9996727108955383,
        1.0,
        0.8318350911140442,
        1.0
      ],
      "min": [
        -0.980866551399231,
        -1.0,
        -0.8747203350067139,
        1.0
      ],
      "type": "VEC4"
    },
    {
      "bufferView": 1,
      "byteOffset": 276288,
      "componentType": 5126,
      "count": 288,
      "max": [
        0.9400969743728638,
        0.9601240158081055
      ],
      "min": [
        0.0047109997831285,
        0.1187480017542839
      ],
      "type": "VEC2"
    },
    {
      "bufferView": 0,
      "byteOffset": 367848,
      "componentType": 5125,
      "count": 720,
      "type": "SCALAR"
    }
  ],
  "asset": {
    "extras": {
      "author": "TJ Holowaychuk (https://sketchfab.com/tjholowaychuk)",
      "license": "CC-BY-4.0 (http://creativecommons.org/licenses/by/4.0/)",
      "source": "https://sketchfab.com/3d-models/air-conditioning-unit-7d6c741a2fb94e328b22a9e929defb02",
      "title": "Air Conditioning Unit"
    },
    "generator": "Sketchfab-12.68.0",
    "version": "2.0"
  },
  "bufferViews": [
    {
      "buffer": 0,
      "byteLength": 370728,
      "name": "floatBufferViews",
      "target": 34963
    },
    {
      "buffer": 0,
      "byteLength": 278592,
      "byteOffset": 370728,
      "byteStride": 8,
      "name": "floatBufferViews",
      "target": 34962
    },
    {
      "buffer": 0,
      "byteLength": 657840,
      "byteOffset": 649320,
      "byteStride": 12,
      "name": "floatBufferViews",
      "target": 34962
    },
    {
      "buffer": 0,
      "byteLength": 438560,
      "byteOffset": 1307160,
      "byteStride": 16,
      "name": "floatBufferViews",
      "target": 34962
    }
  ],
  "buffers": [
    {
      "byteLength": 1745720,
      "uri": "scene.bin"
    }
  ],
  "images": [
    {
      "uri": "textures/DefaultMaterial_baseColor.jpeg"
    },
    {
      "uri": "textures/DefaultMaterial_metallicRoughness.png"
    },
    {
      "uri": "textures/DefaultMaterial_normal.png"
    }
  ],
  "materials": [
    {
      "doubleSided": true,
      "name": "DefaultMaterial",
      "normalTexture": {
        "index": 2
      },
      "occlusionTexture": {
        "index": 1
      },
      "pbrMetallicRoughness": {
        "baseColorTexture": {
          "index": 0
        },
        "metallicRoughnessTexture": {
          "index": 1
        }
      }
    }
  ],
  "meshes": [
    {
      "name": "defaultMaterial",
      "primitives": [
        {
          "attributes": {
            "NORMAL": 1,
            "POSITION": 0,
            "TANGENT": 2,
            "TEXCOORD_0": 3,
            "TEXCOORD_1": 4
          },
          "indices": 5,
          "material": 0,
          "mode": 4
        }
      ]
    },
    {
      "name": "defaultMaterial",
      "primitives": [
        {
          "attributes": {
            "NORMAL": 7,
            "POSITION": 6,
            "TANGENT": 8,
            "TEXCOORD_0": 9
          },
          "indices": 10,
          "material": 0,
          "mode": 4
        }
      ]
    },
    {
      "name": "defaultMaterial",
      "primitives": [
        {
          "attributes": {
            "NORMAL": 12,
            "POSITION": 11,
            "TANGENT": 13,
            "TEXCOORD_0": 14
          },
          "indices": 15,
          "material": 0,
          "mode": 4
        }
      ]
    },
    {
      "name": "defaultMaterial",
      "primitives": [
        {
          "attributes": {
            "NORMAL": 17,
            "POSITION": 16,
            "TANGENT": 18,
            "TEXCOORD_0": 19
          },
          "indices": 20,
          "material": 0,
          "mode": 4
        }
      ]
    },
    {
      "name": "defaultMaterial",
      "primitives": [
        {
          "attributes": {
            "NORMAL": 22,
            "POSITION": 21,
            "TANGENT": 23,
            "TEXCOORD_0": 24
          },
          "indices": 25,
          "material": 0,
          "mode": 4
        }
      ]
    },
    {
      "name": "defaultMaterial",
      "primitives": [
        {
          "attributes": {
            "NORMAL": 27,
            "POSITION": 26,
            "TANGENT": 28,
            "TEXCOORD_0": 29
          },
          "indices": 30,
          "material": 0,
          "mode": 4
        }
      ]
    },
    {
      "name": "defaultMaterial",
      "primitives": [
        {
          "attributes": {
            "NORMAL": 32,
            "POSITION": 31,
            "TANGENT": 33,
            "TEXCOORD_0": 34
          },
          "indices": 35,
          "material": 0,
          "mode": 4
        }
      ]
    },
    {
      "name": "defaultMaterial",
      "primitives": [
        {
          "attributes": {
            "NORMAL": 37,
            "POSITION": 36,
            "TANGENT": 38,
            "TEXCOORD_0": 39
          },
          "indices": 40,
          "material": 0,
          "mode": 4
        }
      ]
    },
    {
      "name": "defaultMaterial",
      "primitives": [
        {
          "attributes": {
            "NORMAL": 42,
            "POSITION": 41,
            "TANGENT": 43,
            "TEXCOORD_0": 44
          },
          "indices": 45,
          "material": 0,
          "mode": 4
        }
      ]
    }
  ],
  "nodes": [
    {
      "children": [
        1
      ],
      "matrix": [
        1.0,
        0.0,
        0.0,
        0.0,
        0.0,
        2.220446049250313e-16,
        -1.0,
        0.0,
        0.0,
        1.0,
        2.220446049250313e-16,
        0.0,
        0.0,
        0.0,
        0.0,
        1.0
      ],
      "name": "Sketchfab_model"
    },
    {
      "children": [
        2
      ],
      "matrix": [
        1.0,
        0.0,
        0.0,
        0.0,
        0.0,
        -4.371139006309477e-08,
        0.999999999999999,
        0.0,
        0.0,
        -0.999999999999999,
        -4.371139006309477e-08,
        0.0,
        0.0,
        0.0,
        0.0,
        1.0
      ],
      "name": "Collada visual scene group"
    },
    {
      "children": [
        3,
        4,
        6,
        12,
        14,
        16,
        18
      ],
      "matrix": [
        100.0,
        0.0,
        0.0,
        0.0,
        0.0,
        -1.6e-05,
        -100.0,
        0.0,
        0.0,
        100.0,
        -1.6e-05,
        0.0,
        0.0,
        0.0,
        0.0,
        1.0
      ],
      "name": "AC"
    },
    {
      "mesh": 0,
      "name": "defaultMaterial"
    },
    {
      "children": [
        5
      ],
      "matrix": [
        -1.0,
        0.0,
        0.0,
        0.0,
        0.0,
        1.0,
        0.0,
        0.0,
        0.0,
        0.0,
        -1.0,
        0.0,
        0.0,
        0.0,
        0.0,
        1.0
      ],
      "name": "Top"
    },
    {
      "mesh": 1,
      "name": "defaultMaterial"
    },
    {
      "children": [
        7,
        8,
        10
      ],
      "matrix": [
        1.0,
        0.0,
        0.0,
        0.0,
        0.0,
        1.0,
        0.0,
        0.0,
        0.0,
        0.0,
        1.0,
        0.0,
        -0.189938,
        -0.26847,
        0.561481,
        1.0
      ],
      "name": "Center"
    },
    {
      "mesh": 2,
      "name": "defaultMaterial"
    },
    {
      "children": [
        9
      ],
      "matrix": [
        1.0,
        0.0,
        0.0,
        0.0,
        0.0,
        0.880688,
        0.0,
        0.0,
        0.0,
        0.0,
        1.0,
        0.0,
        0.0,
        0.397779,
        0.0,
        1.0
      ],
      "name": "Mount"
    },
    {
      "mesh": 3,
      "name": "defaultMaterial"
    },
    {
      "children": [
        11
      ],
      "matrix": [
        1.0,
        0.0,
        0.0,
        0.0,
        0.0,
        1.0,
        0.0,
        0.0,
        0.0,
        0.0,
        1.0,
        0.0,
        0.0,
        0.12643,
        0.0,
        1.0
      ],
      "name": "Blade"
    },
    {
      "mesh": 4,
      "name": "defaultMaterial"
    },
    {
      "children": [
        13
      ],
      "matrix": [
        -0.842131,
        0.0,
        0.539273,
        0.0,
        -0.539273,
        0.0,
        -0.842131,
        0.0,
        0.0,
        -1.0,
        0.0,
        0.0,
        0.173412,
        -0.229985,
        0.205811,
        1.0
      ],
      "name": "Screws"
    },
    {
      "mesh": 5,
      "name": "defaultMaterial"
    },
    {
      "children": [
        15
      ],
      "matrix": [
        1.0,
        0.0,
        0.0,
        0.0,
        0.0,
        1.0,
        0.0,
        0.0,
        0.0,
        0.0,
        1.0,
        0.0,
        -0.189938,
        -0.268545,
        0.561481,
        1.0
      ],
      "name": "Grating"
    },
    {
      "mesh": 6,
      "name": "defaultMaterial"
    },
    {
      "children": [
        17
      ],
      "matrix": [
        1.0,
        0.0,
        0.0,
        0.0,
        0.0,
        1.0,
        0.0,
        0.0,
        0.0,
        0.0,
        1.0,
        0.0,
        -0.554746,
        -0.23524,
        0.206883,
        1.0
      ],
      "name": "Support"
    },
    {
      "mesh": 7,
      "name": "defaultMaterial"
    },
    {
      "children": [
        19
      ],
      "matrix": [
        1.0,
        0.0,
        0.0,
        0.0,
        0.0,
        1.0,
        0.0,
        0.0,
        0.0,
        0.0,
        1.0,
        0.0,
        -0.554566,
        -0.229985,
        0.206075,
        1.0
      ],
      "name": "Mounts"
    },
    {
      "mesh": 8,
      "name": "defaultMaterial"
    }
  ],
  "samplers": [
    {
      "magFilter": 9729,
      "minFilter": 9987,
      "wrapS": 10497,
      "wrapT": 10497
    }
  ],
  "scene": 0,
  "scenes": [
    {
      "name": "Sketchfab_Scene",
      "nodes": [
        0
      ]
    }
  ],
  "textures": [
    {
      "sampler": 0,
      "source": 0
    },
    {
      "sampler": 0,
      "source": 1
    },
    {
      "sampler": 0,
      "source": 2
    }
  ]
}
