{"asset":{"version":"2.0","generator":"VECTARY"},"nodes":[{"translation":[0,7.105427357600999e-18,7.888609052210118e-34],"scale":[0.002559996271428682,0.0007439989163839607,0.0001999997087053658],"rotation":[-0.7071067811865475,0,0,0.7071067811865476],"name":"Box","mesh":0},{"translation":[0,0.020010000000000003,1.7763568394002505e-18],"scale":[0.001,0.001,0.001],"rotation":[-0.7071067811865475,0,0,0.7071067811865476],"name":"Logo_2-removebg-preview - baked","mesh":1}],"materials":[{"pbrMetallicRoughness":{"baseColorFactor":[1,1,1,1],"metallicFactor":0,"roughnessFactor":0.2},"name":"Magic Scent","emissiveFactor":[0,0,0],"extensions":{},"alphaMode":"OPAQUE","doubleSided":false},{"pbrMetallicRoughness":{"baseColorFactor":[1,1,1,1],"baseColorTexture":{"index":0,"extensions":{"KHR_texture_transform":{"offset":[0,0],"scale":[1,1],"rotation":0}},"texCoord":0},"metallicFactor":0,"roughnessFactor":1},"name":"Diamond","emissiveTexture":{"index":1,"extensions":{"KHR_texture_transform":{"offset":[0,0],"scale":[1,1],"rotation":0}},"texCoord":0},"emissiveFactor":[0,0,0],"extensions":{},"alphaMode":"BLEND","doubleSided":false}],"meshes":[{"primitives":[{"mode":4,"attributes":{"POSITION":1,"NORMAL":2,"TEXCOORD_0":3},"material":0,"indices":0}]},{"primitives":[{"mode":4,"attributes":{"POSITION":5,"NORMAL":6,"TEXCOORD_0":7},"material":1,"indices":4}]}],"accessors":[{"bufferView":0,"byteOffset":0,"componentType":5125,"count":2916,"type":"SCALAR"},{"bufferView":1,"byteOffset":0,"componentType":5126,"count":596,"max":[50,50,100],"min":[-50,-50,0],"type":"VEC3"},{"bufferView":2,"byteOffset":0,"componentType":5126,"count":596,"type":"VEC3"},{"bufferView":3,"byteOffset":0,"componentType":5126,"count":596,"type":"VEC2"},{"bufferView":4,"byteOffset":0,"componentType":5125,"count":6,"type":"SCALAR"},{"bufferView":5,"byteOffset":0,"componentType":5126,"count":4,"max":[128,37.20110321044922,0],"min":[-128,-37.20110321044922,0],"type":"VEC3"},{"bufferView":6,"byteOffset":0,"componentType":5126,"count":4,"type":"VEC3"},{"bufferView":7,"byteOffset":0,"componentType":5126,"count":4,"type":"VEC2"}],"bufferViews":[{"buffer":0,"byteOffset":0,"byteLength":11664,"target":34963},{"buffer":0,"byteOffset":11664,"byteLength":7152,"target":34962},{"buffer":0,"byteOffset":18816,"byteLength":7152,"target":34962},{"buffer":0,"byteOffset":25968,"byteLength":4768,"target":34962},{"buffer":0,"byteOffset":30736,"byteLength":24,"target":34963},{"buffer":0,"byteOffset":30760,"byteLength":48,"target":34962},{"buffer":0,"byteOffset":30808,"byteLength":48,"target":34962},{"buffer":0,"byteOffset":30856,"byteLength":32,"target":34962}],"textures":[{"sampler":0,"source":0},{"sampler":0,"source":1}],"images":[{"uri":"Logo_2-removebg-preview&Logo_2-removebg-preview.png","mimeType":"image/png"},{"uri":"Logo_2-removebg-preview.jpg","mimeType":"image/jpeg"}],"samplers":[{"wrapS":10497,"wrapT":10497}],"scene":0,"scenes":[{"nodes":[0,1],"name":"Project Name"}],"extensionsUsed":["KHR_texture_transform"],"buffers":[{"byteLength":30888,"uri":"ProjectName.bin"}]}